<?xml version="1.0" encoding="UTF-8"?>
<svg xmlns="http://www.w3.org/2000/svg" width="1024" height="1024" viewBox="0 0 1024 1024">
  <!-- Definitions -->
  <defs>
    <!-- Gradient background -->
    <linearGradient id="bgGrad" x1="0%" y1="0%" x2="100%" y2="100%">
      <stop offset="0%" style="stop-color:#6366F1;stop-opacity:1" />
      <stop offset="100%" style="stop-color:#8B5CF6;stop-opacity:1" />
    </linearGradient>

    <!-- Text shadow -->
    <filter id="textShadow">
      <feDropShadow dx="0" dy="4" stdDeviation="6" flood-opacity="0.4"/>
    </filter>
  </defs>

  <!-- Background -->
  <rect x="0" y="0" width="1024" height="1024" rx="200" ry="200" fill="url(#bgGrad)"/>

  <!-- Original water drop silhouette - keeping all details and correct orientation -->
  <g transform="translate(512, 580) scale(0.022, -0.022)" opacity="0.2">
    <g transform="translate(-13000, -13000)">
      <path fill="white" d="M12480 20948 c-112 -128 -219 -258 -239 -288 -20 -30 -146 -176 -281
-325 -2235 -2462 -3854 -4651 -4967 -6720 -385 -715 -765 -1554 -916 -2021
-382 -1179 -486 -2344 -306 -3419 177 -1054 608 -1995 1295 -2820 139 -167
542 -570 709 -709 641 -532 1326 -919 2145 -1209 689 -245 1412 -393 2256
-463 260 -22 947 -25 1189 -6 568 45 1006 111 1465 218 1781 419 3202 1352
4097 2689 884 1321 1185 2946 867 4672 -89 485 -249 1045 -414 1449 -1005
2457 -2919 5243 -5708 8307 -139 153 -277 312 -306 353 -56 79 -445 514 -459
514 -5 0 -28 -13 -52 -30 -24 -16 -49 -30 -56 -30 -6 0 -34 16 -60 35 -27 19
-51 35 -53 35 -2 0 -95 -105 -206 -232z m565 -1863 c1660 -1856 3013 -3646
3973 -5256 487 -817 913 -1664 1202 -2386 175 -436 322 -1063 387 -1648 22
-202 25 -859 5 -1055 -67 -641 -216 -1159 -481 -1685 -459 -907 -1189 -1624
-2153 -2113 -267 -136 -479 -225 -780 -327 -970 -331 -2101 -451 -3198 -339
-1716 174 -3120 867 -4015 1979 -569 708 -900 1541 -997 2510 -17 174 -17 787
0 965 51 526 168 1068 331 1540 174 505 644 1480 1081 2240 918 1599 2197
3339 3810 5180 264 303 585 660 591 660 4 0 113 -119 244 -265z"/>
      <path d="M10580 13443 c-289 -33 -540 -236 -625 -506 -97 -305 -2 -621 244
-817 76 -61 151 -100 251 -132 64 -20 95 -23 215 -22 124 0 149 3 220 27 251
84 432 280 496 536 30 120 24 292 -15 406 -113 332 -445 547 -786 508z"/>
      <path d="M14870 13444 c-144 -24 -234 -57 -330 -119 -394 -254 -455 -808 -125
-1141 142 -144 293 -212 491 -221 381 -19 693 228 770 607 86 428 -250 851
-695 874 -47 2 -97 3 -111 0z"/>
      <path d="M11665 11207 c-96 -32 -162 -90 -204 -177 -24 -50 -26 -65 -25 -175
2 -349 157 -694 423 -948 259 -246 586 -377 940 -377 653 0 1208 449 1346
1090 9 41 19 134 22 205 5 118 3 135 -17 189 -27 72 -98 147 -167 178 -73 33
-190 32 -264 -3 -122 -57 -178 -150 -191 -319 -17 -224 -107 -404 -268 -535
-357 -292 -898 -176 -1105 236 -46 94 -67 176 -83 330 -11 107 -31 156 -88
219 -73 80 -218 120 -319 87z"/>
      <path d="M16975 9083 c-57 -96 -123 -232 -208 -429 -36 -83 -90 -200 -120
-261 -31 -60 -76 -159 -102 -219 -26 -60 -66 -143 -89 -184 -24 -41 -69 -125
-99 -187 -31 -62 -78 -145 -105 -185 -27 -40 -64 -100 -82 -133 -40 -71 -211
-315 -235 -335 -9 -8 -50 -57 -91 -110 -119 -155 -408 -429 -678 -644 -103
-82 -417 -303 -709 -500 -279 -189 -296 -204 -255 -229 35 -23 421 19 648 69
734 164 1348 563 1716 1115 274 411 429 853 490 1394 24 213 26 254 22 563 -4
346 -5 351 -45 352 -7 0 -33 -35 -58 -77z"/>
    </g>
  </g>

  <!-- Text -->
  <g filter="url(#textShadow)">
    <text x="512" y="380" font-family="Arial Black, sans-serif" font-size="180" font-weight="900" text-anchor="middle" fill="white">CCv</text>
    <text x="512" y="520" font-family="Arial Black, sans-serif" font-size="180" font-weight="900" text-anchor="middle" fill="white">GEN</text>
  </g>
</svg>